/* XPM */
static char * gentil_loup_xpm[] = {
"128 128 8 1",
" 	c #F8B8C0",
".	c #F8E0E0",
"+	c #001840",
"@	c #F8E8E0",
"#	c #88A8B8",
"$	c #F8F8F8",
"%	c #D098A8",
"&	c #000000",
"                                 ..                            ..                                                       ...     ",
"          ++++++++               ..                   ++++++++ ..                                                       ...     ",
"          ++++++++            ...                     ++++++++...                                                    ...        ",
"          ++++++++            ...                     ++++++++...                                                    ...        ",
"   ..     ++++++++                               .....++++++++.                           ...                                   ",
"   .. ++++@@@@++++++++                           .++++++++@@@@++++                        ...                                   ",
"   .. ++++@@@@++++++++                           .++++++++@@@@++++                        ...                                   ",
"......++++@@@@++++++++                        ....++++++++@@@@++++                     ........                                 ",
"......++++@@@@++++++++                        ....++++++++@@@@++++                     ........                                 ",
"......++++@@@@@@@@++++++++                    ++++++++@@@@@@@@@@@@++++                 ........                                 ",
"......++++@@@@@@@@++++++++ ......             ++++++++@@@@@@@@@@@@++++                 ........   ...             ......        ",
"......++++@@@@@@@@++++++++ ......             ++++++++@@@@@@@@@@@@++++                 ........   ...             ......        ",
"......++++@@@@@@@@++++++++ ......             ++++++++@@@@@@@@@@@@++++                 ........   ...             ......        ",
"..++++@@@@++++@@@@++++++++++++.....       ++++++++@@@@@@@@@@@@@@@@++++                 ........   .....           .........     ",
"..++++@@@@++++@@@@++++++++++++.....       ++++++++@@@@@@@@@@@@@@@@++++                 ........   .....           .........     ",
"  ++++@@@@++++@@@@++++++++++++.....       ++++++++@@@@@@@@@@@@@@@@++++                    ...        ..              ......     ",
"  ++++@@@@++++@@@@++++++++++++.....       ++++++++@@@@@@@@@@@@@@@@++++                    ...        ..              ......     ",
"  ++++@@@@++++####@@@@++++++++++++++++++++++++@@@@@@@@++++@@@@@@@@++++++++                ...        ..              ......     ",
"  ++++@@@@++++####@@@@++++++++++++++++++++++++@@@@@@@@++++@@@@@@@@++++++++                                                      ",
"  ++++@@@@++++####@@@@++++++++++++++++++++++++@@@@@@@@++++@@@@@@@@++++++++                                                      ",
"  ++++@@@@++++####@@@@++++++++++++++++++++++++@@@@@@@@++++@@@@@@@@++++++++                                                      ",
"  ++++@@@@++++++++++++++++++++####++++++++++++@@@@++++########@@@@++++++++  ...                   ...                           ",
"  ++++@@@@++++++++++++++++++++####++++++++++++@@@@++++########@@@@++++++++  ...                   ...                           ",
"  ++++@@@@++++++++++++++++++++####++++++++++++@@@@++++########@@@@++++++++  ...                   ...                           ",
"  ++++@@@@++++++++++++++++++++####++++++++++++@@@@++++########@@@@++++++++..                   ...                           ...",
"  ++++@@@@++++++++++++++++@@@@@@@@++++++++++++++++++++++++@@@@@@@@++++++++..                   ...                           ...",
"  ++++@@@@++++++++++++++++@@@@@@@@++++++++++++++++++++++++@@@@@@@@++++++++                                        .........  ...",
"  ++++@@@@++++++++++++++++@@@@@@@@++++++++++++++++++++++++@@@@@@@@++++++++                                        .........  ...",
"  ++++@@@@++++++++++++++++@@@@@@@@++++++++++++++++++++++++@@@@@@@@++++++++                                        .........  ...",
"  ++++++++@@@@@@@@++++++++@@@@++++++++++++########++++++++++++@@@@++++++++                                      ...........     ",
"  ++++++++@@@@@@@@++++++++@@@@++++++++++++########++++++++++++@@@@++++++++                                      ...........     ",
"  ++++++++@@@@@@@@++++++++@@@@++++++++++++########++++++++++++@@@@++++++++                                      ...........     ",
"  ++++++++@@@@@@@@++++++++@@@@++++++++++++########++++++++++++@@@@++++++++..                 .....              ...........     ",
"  ++++++++@@@@@@@@++++++++@@@@++++++++@@@@@@@@####++++++++++++++++++++++++..                 .....              ...........     ",
"  ++++++++@@@@@@@@++++++++@@@@++++++++@@@@@@@@####++++++++++++++++++++++++.....              ........           ........        ",
"  ++++++++@@@@@@@@++++++++@@@@++++++++@@@@@@@@####++++++++++++++++++++++++.....              ........           ........        ",
"  ++++++++@@@@@@@@++++++++@@@@++++++++@@@@@@@@####++++++++++++++++++++++++.....              ........           ........        ",
"  ++++@@@@@@@@@@@@++++@@@@@@@@++++@@@@@@@@@@@@@@@@####++++++++++++++++    .....                ......                           ",
"  ++++@@@@@@@@@@@@++++@@@@@@@@++++@@@@@@@@@@@@@@@@####++++++++++++++++    .....                ......                           ",
"  ++++@@@@@@@@@@@@++++@@@@@@@@++++@@@@@@@@@@@@@@@@####++++++++++++++++    .....                ......                           ",
"  ++++@@@@@@@@@@@@++++@@@@@@@@++++@@@@@@@@@@@@@@@@####++++++++++++++++                                                          ",
"  ++++@@@@@@@@@@@@@@@@@@@@@@@@@@@@@@@@@@@@@@@@@@@@@@@@++++++++++++++++                                                          ",
"  ++++@@@@@@@@@@@@@@@@@@@@@@@@@@@@@@@@@@@@@@@@@@@@@@@@++++++++++++++++                                                          ",
"  ++++@@@@@@@@@@@@@@@@@@@@@@@@@@@@@@@@@@@@@@@@@@@@@@@@++++++++++++++++                                                          ",
"  ++++@@@@@@@@@@@@@@@@@@@@@@@@@@@@@@@@@@@@@@@@@@@@@@@@++++++++++++++++                                                          ",
"  ++++@@@@++++@@@@@@@@@@@@@@@@@@@@@@@@++++@@@@@@@@++++++++++++++++++++                                                       ...",
"  ++++@@@@++++@@@@@@@@@@@@@@@@@@@@@@@@++++@@@@@@@@++++++++++++++++++++                                                       ...",
"  ++++@@@@++++@@@@@@@@@@@@@@@@@@@@@@@@++++@@@@@@@@++++++++++++++++++++                                                       ...",
"  ++++@@@@++++@@@@@@@@@@@@@@@@@@@@@@@@++++@@@@@@@@++++++++++++++++++++                    ...                     .........  ...",
"  ++++@@@@++++@@@@@@@@@@@@@@@@@@@@@@@@++++@@@@@@@@++++++++++++++++++++                    ...                     .........  ...",
"  ++++@@@@++++@@@@@@@@@@@@@@@@@@@@@@@@++++@@@@@@@@++++++++++++++++++++                    ...                     .........  ...",
"  ++++@@@@++++@@@@@@@@@@@@@@@@@@@@@@@@++++@@@@@@@@++++++++++++++++++++                 ........                 ...........     ",
"  ++++@@@@++++@@@@@@@@@@@@@@@@@@@@@@@@++++@@@@@@@@++++++++++++++++++++                 ........                 ...........     ",
"  ++++####@@@@@@@@@@@@@@@@@@@@@@@@@@@@@@@@@@@@############++++++++++++++++            ++++++++++++++++          ...........     ",
"  ++++####@@@@@@@@@@@@@@@@@@@@@@@@@@@@@@@@@@@@############++++++++++++++++            ++++++++++++++++          ...........     ",
"  ++++####@@@@@@@@@@@@@@@@@@@@@@@@@@@@@@@@@@@@############++++++++++++++++            ++++++++++++++++          ...........     ",
"  ++++####@@@@@@@@@@@@@@@@@@@@@@@@@@@@@@@@@@@@############++++++++++++++++            ++++++++++++++++.         ........        ",
"      ++++####@@@@@@@@@@@@####@@@@@@@@@@@@++++################++++++++++++++++         ...++++++++@@@@++++++++  ........        ",
"      ++++####@@@@@@@@@@@@####@@@@@@@@@@@@++++################++++++++++++++++         ...++++++++@@@@++++++++  ........        ",
"      ++++####@@@@@@@@@@@@####@@@@@@@@@@@@++++################++++++++++++++++            ++++++++@@@@++++++++                  ",
"      ++++####@@@@@@@@@@@@####@@@@@@@@@@@@++++################++++++++++++++++            ++++++++@@@@++++++++                  ",
"      ++++####@@@@@@@@########@@@@@@@@####++++####++++########++++++++++++++++++++        ... ++++++++@@@@@@@@++++              ",
"      ++++####@@@@@@@@########@@@@@@@@####++++####++++########++++++++++++++++++++            ++++++++@@@@@@@@++++              ",
"      ++++####@@@@@@@@########@@@@@@@@####++++####++++########++++++++++++++++++++            ++++++++@@@@@@@@++++              ",
"      ++++####@@@@@@@@########@@@@@@@@####++++####++++########++++++++++++++++++++            ++++++++@@@@@@@@++++      ...     ",
"      ++++++++++++++++++++@@@@@@@@####++++@@@@++++############++++++++++++++++++++                ++++++++++++@@@@++++  ...     ",
"      ++++++++++++++++++++@@@@@@@@####++++@@@@++++############++++++++++++++++++++                ++++++++++++@@@@++++  ...     ",
"      ++++++++++++++++++++@@@@@@@@####++++@@@@++++############++++++++++++++++++++                ++++++++++++@@@@++++..        ",
"      ++++++++++++++++++++@@@@@@@@####++++@@@@++++############++++++++++++++++++++                ++++++++++++@@@@++++..        ",
"      ++++++++++++++++++++@@@@####++++@@@@++++############++++++++++++++++++++++++++++++++            ++++++++@@@@++++..        ",
"     .++++++++++++++++++++@@@@####++++@@@@++++############++++++++++++++++++++++++++++++++   ........ ++++++++@@@@++++          ",
"     .++++++++++++++++++++@@@@####++++@@@@++++############++++++++++++++++++++++++++++++++   ........ ++++++++@@@@++++          ",
"     .++++++++++++++++++++@@@@####++++@@@@++++############++++++++++++++++++++++++++++++++   ........ ++++++++@@@@++++          ",
"   .......++++++++++++########++++####++++################++++++++++++++++++++++++++++++++++++....... ++++++++@@@@++++          ",
"   .......++++++++++++########++++####++++################++++++++++++++++++++++++++++++++++++....... ++++++++@@@@++++          ",
"   .......++++++++++++########++++####++++################++++++++++++++++++++++++++++++++++++....... ++++++++@@@@++++..        ",
"   .......++++++++++++########++++####++++################++++++++++++++++++++++++++++++++++++....... ++++++++@@@@++++..        ",
"   ...........++++++++++++++++++++++++################++++++++++++++++++++++++++++++++++++++++++++...     ++++++++@@@@++++      ",
"   ........   ++++++++++++++++++++++++################++++++++++++++++++++++++++++++++++++++++++++        ++++++++@@@@++++.     ",
"   ........   ++++++++++++++++++++++++################++++++++++++++++++++++++++++++++++++++++++++        ++++++++@@@@++++.     ",
"   ........   ++++++++++++++++++++++++################++++++++++++++++++++++++++++++++++++++++++++        ++++++++@@@@++++.     ",
"              ++++@@@@@@@@@@@@####################++++++++++++++++++++++++++++++++++++++++++++++++++++    ++++++++++++@@@@++++  ",
"              ++++@@@@@@@@@@@@####################++++++++++++++++++++++++++++++++++++++++++++++++++++    ++++++++++++@@@@++++  ",
"              ++++@@@@@@@@@@@@####################++++++++++++++++++++++++++++++++++++++++++++++++++++    ++++++++++++@@@@++++  ",
"              ++++@@@@@@@@@@@@####################++++++++++++++++++++++++++++++++++++++++++++++++++++    ++++++++++++@@@@++++  ",
"              ++++@@@@@@@@@@@@@@@@################################++++++++++++++++++++++++++++++++++++    ++++++++++++@@@@++++  ",
"           ...++++@@@@@@@@@@@@@@@@################################++++++++++++++++++++++++++++++++++++    ++++++++++++@@@@++++  ",
"           ...++++@@@@@@@@@@@@@@@@################################++++++++++++++++++++++++++++++++++++    ++++++++++++@@@@++++  ",
"           ...++++@@@@@@@@@@@@@@@@################################++++++++++++++++++++++++++++++++++++    ++++++++++++@@@@++++  ",
"        ...       ++++@@@@@@@@@@@@@@@@############################++++++++++++++++++++++++++++++++++++++++++++++++++++@@@@++++..",
"        ...       ++++@@@@@@@@@@@@@@@@############################++++++++++++++++++++++++++++++++++++++++++++++++++++@@@@++++..",
"        ...       ++++@@@@@@@@@@@@@@@@############################++++++++++++++++++++++++++++++++++++++++++++++++++++@@@@++++..",
"                  ++++@@@@@@@@@@@@@@@@############################++++++++++++++++++++++++++++++++++++++++++++++++++++@@@@++++..",
"                  ++++####++++@@@@@@@@@@@@@@@@########################++++++++++++++++++++++++++++++++++++++++++++++++####++++..",
"                  ++++####++++@@@@@@@@@@@@@@@@########################++++++++++++++++++++++++++++++++++++++++++++++++####++++  ",
"                  ++++####++++@@@@@@@@@@@@@@@@########################++++++++++++++++++++++++++++++++++++++++++++++++####++++  ",
"                  ++++####++++@@@@@@@@@@@@@@@@########################++++++++++++++++++++++++++++++++++++++++++++++++####++++  ",
"     ......       ++++########++++@@@@@@@@@@@@@@@@############++++####++++++++++++++++++++++++++++++++++++++++++++++++####++++  ",
"     ......       ++++########++++@@@@@@@@@@@@@@@@############++++####++++++++++++++++++++++++++++++++++++++++++++++++####++++  ",
"     ......       ++++########++++@@@@@@@@@@@@@@@@############++++####++++++++++++++++++++++++++++++++++++++++++++++++####++++  ",
"     .........    ++++########++++@@@@@@@@@@@@@@@@############++++####++++++++++++++++++++++++++++++++++++++++++++++++####++++  ",
"     .........        ++++########++++++++++++@@@@########++++++++########++++++++++++++++++++++++++++++++++++++++########++++  ",
"        ......        ++++########++++++++++++@@@@########++++++++########++++++++++++++++++++++++++++++++++++++++########++++  ",
"        ......        ++++########++++++++++++@@@@########++++++++########++++++++++++++++++++++++++++++++++++++++########++++  ",
"        ......        ++++########++++++++++++@@@@########++++++++########++++++++++++++++++++++++++++++++++++++++########++++  ",
"                      ++++@@@@####++++$$$$++++@@@@########++++############++++++++++++++++++++++++++++++++++++++++####++++      ",
"                      ++++@@@@####++++$$$$++++@@@@########++++############++++++++++++++++++++++++++++++++++++++++####++++      ",
"                      ++++@@@@####++++$$$$++++@@@@########++++############++++++++++++++++++++++++++++++++++++++++####++++      ",
"           ...        ++++@@@@####++++$$$$++++@@@@########++++############++++++++++++++++++++++++++++++++++++++++####++++.     ",
"           ...++++++++@@@@@@@@####++++$$$$++++@@@@########++++####++++++++++++++++++++++++++++++++++++++++++++########++++.     ",
"           ...++++++++@@@@@@@@####++++$$$$++++@@@@########++++####++++++++++++++++++++++++++++++++++++++++++++########++++.     ",
"        ...   ++++++++@@@@@@@@####++++$$$$++++@@@@########++++####++++++++++++++++++++++++++++++++++++++++++++########++++      ",
"        ...   ++++++++@@@@@@@@####++++$$$$++++@@@@########++++####++++++++++++++++++++++++++++++++++++++++++++########++++      ",
"          ++++@@@@@@@@@@@@@@@@####++++++++@@@@@@@@########++++++++@@@@@@@@@@@@########++++++++++++++++++++++++####++++          ",
"          ++++@@@@@@@@@@@@@@@@####++++++++@@@@@@@@########++++++++@@@@@@@@@@@@########++++++++++++++++++++++++####++++          ",
"          ++++@@@@@@@@@@@@@@@@####++++++++@@@@@@@@########++++++++@@@@@@@@@@@@########++++++++++++++++++++++++####++++          ",
"          ++++@@@@@@@@@@@@@@@@####++++++++@@@@@@@@########++++++++@@@@@@@@@@@@########++++++++++++++++++++++++####++++          ",
"          ++++@@@@####++++####++++++++@@@@++++####++++####++++++++####++++####++++####++++++++++++++++++++++++++++              ",
"          ++++@@@@####++++####++++++++@@@@++++####++++####++++++++####++++####++++####++++++++++++++++++++++++++++              ",
"     .....++++@@@@####++++####++++++++@@@@++++####++++####++++++++####++++####++++####++++++++++++++++++++++++++++......        ",
"     .....++++@@@@####++++####++++++++@@@@++++####++++####++++++++####++++####++++####++++++++++++++++++++++++++++......        ",
"     .....++++++++++++++++++++....++++++++++++++++++++++++++++++++++++++++++++++++++++++++++++++++++++++++++++    ......        ",
"     .....++++++++++++++++++++... ++++++++++++++++++++++++++++++++++++++++++++++++++++++++++++++++++++++++++++    .........     ",
"     .....++++++++++++++++++++... ++++++++++++++++++++++++++++++++++++++++++++++++++++++++++++++++++++++++++++    .........     ",
"        ..++++++++++++++++++++    ++++++++++++++++++++++++++++++++++++++++++++++++++++++++++++++++++++++++++++       ......     ",
"        ......                                                      ...        ...        %%%&&&&&&&&&&%%%%%%        ......     ",
"        ......                                                      ...        ...        %%%&&&&&&&&&&%%%%%%        ......     ",
"                                                                                                                                "};
