/* XPM */
static char * lapin_mechant_left_xpm[] = {
"128 128 7 1",
" 	c #F8B8C0",
".	c #F8E0E0",
"+	c #000000",
"@	c #C87818",
"#	c #F8E0C0",
"$	c #F8F8F8",
"%	c #D098A8",
"                                 ..                            ..                                                       ...     ",
"                                 ..                            ..                                                       ...     ",
"             +++++++++++++++++++.                       ++++++++++++++++                                             ...        ",
"             +++++++++++++++++++.                       ++++++++++++++++......                                       ...        ",
"   ..        +++++++++++++++++++                 .......++++++++++++++++......            ...                                   ",
"   ..        +++++++++++++++++++                 .......++++++++++++++++......            ...                                   ",
"   ..    ++++@@@@###############++++++++         ...++++@@@@########@@@@++++.....         ...                                   ",
"........ ++++@@@@###############++++++++      ......++++@@@@########@@@@++++.....      ........                                 ",
"........ ++++@@@@###############++++++++      ......++++@@@@########@@@@++++.....      ........                                 ",
"........ ++++@@@@###############++++++++      ......++++@@@@########@@@@++++.....      ........                                 ",
".....++++@@@@####++++++++++++@@@@@@@@@@@++++++++++++@@@@################@@@@++++.      ........   ...             ......        ",
".....++++@@@@####++++++++++++@@@@@@@@@@@++++++++++++@@@@################@@@@++++.      ........   ...             ......        ",
".....++++@@@@####++++++++++++@@@@@@@@@@@++++++++++++@@@@################@@@@++++.      ........   ...             ......        ",
".....++++@@@@####++++++++++++@@@@@@@@@@@++++++++++++@@@@################@@@@++++.      ........   .....           .........     ",
".....++++####@@@@++++@@@@###############@@@@@@@@############################++++       ........   .....           .........     ",
"   ..++++####@@@@++++@@@@###############@@@@@@@@############################++++          ...        ..              ......     ",
"   ..++++####@@@@++++@@@@###############@@@@@@@@############################++++          ...        ..              ......     ",
"   ..++++####@@@@++++@@@@###############@@@@@@@@############################++++          ...        ..              ......     ",
"     ++++####++++@@@@###############################@@@@####################@@@@++++                                            ",
"     ++++####++++@@@@###############################@@@@####################@@@@++++                                            ",
"     ++++####++++@@@@###############################@@@@####################@@@@++++                                            ",
"     ++++####++++@@@@###############################@@@@####################@@@@++++              ...                           ",
"     ++++++++#######################################@@@@++++@@@@############@@@@++++              ...                           ",
"     ++++++++#######################################@@@@++++@@@@############@@@@++++              ...                           ",
"     ++++++++#######################################@@@@++++@@@@############@@@@++++           ...                           ...",
"     ++++++++#######################################@@@@++++@@@@############@@@@++++           ...                           ...",
"     ++++++++#######################################@@@@++++@@@@############@@@@++++                              .........  ...",
"     ++++++++#######################################@@@@++++@@@@############@@@@++++                              .........  ...",
"     ++++++++#######################################@@@@++++@@@@############@@@@++++                              .........  ...",
"   ..++++++++#######################################@@@@++++@@@@############@@@@++++                            ...........     ",
"   ..++++########++++#######################++++########++++@@@@################++++                            ...........     ",
"   ..++++########++++#######################++++########++++@@@@################++++                            ...........     ",
"   ..++++########++++#######################++++########++++@@@@################++++         .....              ...........     ",
"   ..++++####++++++++###################++++++++########++++@@@@################++++         .....              ...........     ",
"   ..++++####++++++++###################++++++++########++++@@@@################++++         ........           ........        ",
"   ..++++####++++++++###################++++++++########++++@@@@################++++         ........           ........        ",
"   ..++++####++++++++###################++++++++########++++@@@@################++++         ........           ........        ",
"     ++++####++++++++###################++++++++########++++@@@@################++++           ......                           ",
"     ++++####++++++++###################++++++++########++++@@@@################++++           ......                           ",
"     ++++####++++++++###################++++++++########++++@@@@################++++           ......                           ",
"     ++++####++++++++###################++++++++########++++@@@@################++++                                            ",
"     ++++####++++++++###################++++++++########++++@@@@################@@@@++++                                        ",
"     ++++####++++++++###################++++++++########++++@@@@################@@@@++++                                        ",
"     ++++####++++++++###################++++++++########++++@@@@################@@@@++++                                        ",
"     ++++####++++++++###################++++++++########++++@@@@################@@@@++++                                        ",
"     ++++###############################################++++@@@@@@@@############@@@@+++++++++++++++                          ...",
"     ++++###############################################++++@@@@@@@@############@@@@+++++++++++++++                          ...",
"     ++++###############################################++++@@@@@@@@############@@@@+++++++++++++++                          ...",
"     ++++###############################################++++@@@@@@@@############@@@@+++++++++++++++               .........  ...",
"     ++++########++++++++###########################@@@@++++@@@@@@@@############@@@@++++@@@@#######++++++++       .........  ...",
"     ++++########++++++++###########################@@@@++++@@@@@@@@############@@@@++++@@@@#######++++++++       .........  ...",
"     ++++########++++++++###########################@@@@++++@@@@@@@@############@@@@++++@@@@#######++++++++     ...........     ",
"     ++++########++++++++###########################@@@@++++@@@@@@@@############@@@@++++@@@@#######++++++++     ...........     ",
"     ++++++++########++++#######################@@@@@@@@++++@@@@@@@@################++++@@@@###############++++ ...........     ",
"     ++++++++########++++#######################@@@@@@@@++++@@@@@@@@################++++@@@@###############++++ ...........     ",
"     ++++++++########++++#######################@@@@@@@@++++@@@@@@@@################++++@@@@###############++++ ...........     ",
"     ++++++++########++++#######################@@@@@@@@++++@@@@@@@@################++++@@@@###############++++ ........        ",
"     ++++@@@@++++########++++###############@@@@@@@@++++++++@@@@@@@@################++++@@@@###################++++.....        ",
"     ++++@@@@++++########++++###############@@@@@@@@++++++++@@@@@@@@################++++@@@@###################++++.....        ",
"     ++++@@@@++++########++++###############@@@@@@@@++++++++@@@@@@@@################++++@@@@###################++++             ",
"     ++++@@@@++++########++++###############@@@@@@@@++++++++@@@@@@@@################++++@@@@###################++++             ",
"     ++++@@@@++++++++@@@@#######@@@@@@@@@@@@++++++++@@@@++++@@@@@@@@################++++@@@@@@@@@@@################++++         ",
"     ++++@@@@++++++++@@@@#######@@@@@@@@@@@@++++++++@@@@++++@@@@@@@@################++++@@@@@@@@@@@################++++         ",
"     ++++@@@@++++++++@@@@#######@@@@@@@@@@@@++++++++@@@@++++@@@@@@@@################++++@@@@@@@@@@@################++++         ",
"     ++++@@@@++++++++@@@@#######@@@@@@@@@@@@++++++++@@@@++++@@@@@@@@################++++@@@@@@@@@@@################++++ ...     ",
"     ++++@@@@++++@@@@+++++++++++++++++++++++@@@@@@@@@@@@++++@@@@@@@@################+++++++++++++++@@@@############++++ ...     ",
"     ++++@@@@++++@@@@+++++++++++++++++++++++@@@@@@@@@@@@++++@@@@@@@@################+++++++++++++++@@@@############++++ ...     ",
"     ++++@@@@++++@@@@+++++++++++++++++++++++@@@@@@@@@@@@++++@@@@@@@@################+++++++++++++++@@@@############++++.        ",
"     ++++@@@@++++@@@@+++++++++++++++++++++++@@@@@@@@@@@@++++@@@@@@@@################+++++++++++++++@@@@############++++.        ",
"     ++++@@@@++++@@@@++++@@@@@@@@@@@@@@@############@@@@@@@@++++@@@@################++++@@@@@@@####++++@@@@############++++     ",
"     ++++@@@@++++@@@@++++@@@@@@@@@@@@@@@############@@@@@@@@++++@@@@################++++@@@@@@@####++++@@@@############++++     ",
"     ++++@@@@++++@@@@++++@@@@@@@@@@@@@@@############@@@@@@@@++++@@@@################++++@@@@@@@####++++@@@@############++++     ",
"     ++++@@@@++++@@@@++++@@@@@@@@@@@@@@@############@@@@@@@@++++@@@@################++++@@@@@@@####++++@@@@############++++     ",
" ++++@@@@####++++@@@@++++@@@@@@@########################@@@@++++@@@@################++++@@@@###########++++@@@@########++++     ",
" ++++@@@@####++++@@@@++++@@@@@@@########################@@@@++++@@@@################++++@@@@###########++++@@@@########++++     ",
" ++++@@@@####++++@@@@++++@@@@@@@########################@@@@++++@@@@################++++@@@@###########++++@@@@########++++     ",
" ++++@@@@####++++@@@@++++@@@@@@@########################@@@@++++@@@@################++++@@@@###########++++@@@@########++++     ",
" ++++@@@@####++++@@@@++++@@@@###########################@@@@++++@@@@################@@@@++++###########++++@@@@########++++     ",
" ++++@@@@####++++@@@@++++@@@@###########################@@@@++++@@@@################@@@@++++###########++++@@@@########++++     ",
" ++++@@@@####++++@@@@++++@@@@###########################@@@@++++@@@@################@@@@++++###########++++@@@@########++++     ",
" ++++@@@@####++++@@@@++++@@@@###########################@@@@++++@@@@################@@@@++++###########++++@@@@########++++     ",
" ++++@@@@####++++@@@@++++@@@@###########################@@@@++++@@@@################@@@@++++###############################++++ ",
" ++++@@@@####++++@@@@++++@@@@###########################@@@@++++@@@@################@@@@++++###############################++++ ",
" ++++@@@@####++++@@@@++++@@@@###########################@@@@++++@@@@################@@@@++++###############################++++ ",
" ++++@@@@####++++@@@@++++@@@@###########################@@@@++++@@@@################@@@@++++###############################++++ ",
" ++++@@@@####++++@@@@@@@@++++###########################@@@@++++@@@@####################++++###############################++++ ",
" ++++@@@@####++++@@@@@@@@++++###########################@@@@++++@@@@####################++++###############################++++ ",
" ++++@@@@####++++@@@@@@@@++++###########################@@@@++++@@@@####################++++###############################++++ ",
" ++++@@@@####++++@@@@@@@@++++###########################@@@@++++@@@@####################++++###############################++++ ",
" ++++@@@@####++++@@@@@@@@++++###########################@@@@++++@@@@@@@@################++++@@@############################++++.",
" ++++@@@@####++++@@@@@@@@++++###########################@@@@++++@@@@@@@@################++++@@@############################++++.",
" ++++@@@@####++++@@@@@@@@++++###########################@@@@++++@@@@@@@@################++++@@@############################++++.",
" ++++@@@@####++++@@@@@@@@++++###########################@@@@++++@@@@@@@@################++++@@@############################++++.",
" ++++########++++@@@@####++++@@@####################@@@@@@@@++++@@@@@@@@################++++@@@########################@@@@++++.",
" ++++########++++@@@@####++++@@@####################@@@@@@@@++++@@@@@@@@################++++@@@########################@@@@++++ ",
" ++++########++++@@@@####++++@@@####################@@@@@@@@++++@@@@@@@@################++++@@@########################@@@@++++ ",
" ++++########++++@@@@####+++++++@@@@@@@@++++@@@@@@@@@@@@@@@@++++@@@@@@@@################++++@@@########################@@@@++++ ",
" ++++########++++@@@@####+++++++@@@@@@@@++++@@@@@@@@@@@@@@@@++++@@@@@@@@################++++@@@########################@@@@++++ ",
" ++++########++++@@@@####+++++++@@@@@@@@++++@@@@@@@@@@@@@@@@++++@@@@@@@@################++++@@@########################@@@@++++ ",
" ++++########++++@@@@####+++++++@@@@@@@@++++@@@@@@@@@@@@@@@@++++@@@@@@@@################++++@@@########################@@@@++++ ",
" ++++########++++@@@@####++++@@@++++++++++++@@@@####@@@@@@@@++++@@@@@@@@################@@@@+++@@@@################@@@@++++     ",
" ++++########++++@@@@####++++@@@++++++++++++@@@@####@@@@@@@@++++@@@@@@@@################@@@@+++@@@@################@@@@++++     ",
" ++++########++++@@@@####++++@@@++++++++++++@@@@####@@@@@@@@++++@@@@@@@@################@@@@+++@@@@################@@@@++++     ",
" ++++########++++@@@@####++++@@@++++++++++++@@@@####@@@@@@@@++++@@@@@@@@################@@@@+++@@@@################@@@@++++     ",
" ++++########@@@@@@@@####++++###@@@@@@@@++++########@@@@@@@@++++@@@@@@@@####################@@@++++################@@@@++++++++ ",
" ++++########@@@@@@@@####++++###@@@@@@@@++++########@@@@@@@@++++@@@@@@@@####################@@@++++################@@@@++++++++ ",
" ++++########@@@@@@@@####++++###@@@@@@@@++++########@@@@@@@@++++@@@@@@@@####################@@@++++################@@@@++++++++ ",
" ++++########@@@@@@@@####++++###@@@@@@@@++++########@@@@@@@@++++@@@@@@@@####################@@@++++################@@@@++++++++ ",
" ++++################@@@@++++#######@@@@++++########@@@@++++$$$$++++@@@@@@@@################@@@++++@@@@########@@@@++++####++++ ",
" ++++################@@@@++++#######@@@@++++########@@@@++++$$$$++++@@@@@@@@################@@@++++@@@@########@@@@++++####++++ ",
" ++++################@@@@++++#######@@@@++++########@@@@++++$$$$++++@@@@@@@@################@@@++++@@@@########@@@@++++####++++ ",
" ++++################@@@@++++#######@@@@++++########@@@@++++$$$$++++@@@@@@@@################@@@++++@@@@########@@@@++++####++++ ",
" ++++@@@@############++++@@@@#######@@@@++++########@@@@++++$$$$++++@@@@@@@@@@@@############@@@++++@@@@@@@@@@@@++++########++++ ",
" ++++@@@@############++++@@@@#######@@@@++++########@@@@++++$$$$++++@@@@@@@@@@@@############@@@++++@@@@@@@@@@@@++++########++++ ",
" ++++@@@@############++++@@@@#######@@@@++++########@@@@++++$$$$++++@@@@@@@@@@@@############@@@++++@@@@@@@@@@@@++++########++++ ",
" ++++@@@@############++++@@@@#######@@@@++++########@@@@++++$$$$++++@@@@@@@@@@@@############@@@++++@@@@@@@@@@@@++++########++++ ",
" ++++@@@@@@@@@@@@@@@@++++#######@@@@++++########@@@@++++    ++++####++++@@@@@@@@@@@@@@@@@@@@@@@++++++++++++++++@@@@####++++     ",
" ++++@@@@@@@@@@@@@@@@++++#######@@@@++++########@@@@++++    ++++####++++@@@@@@@@@@@@@@@@@@@@@@@++++++++++++++++@@@@####++++     ",
" ++++@@@@@@@@@@@@@@@@++++#######@@@@++++########@@@@++++    ++++####++++@@@@@@@@@@@@@@@@@@@@@@@++++++++++++++++@@@@####++++     ",
" ++++@@@@@@@@@@@@@@@@++++#######@@@@++++########@@@@++++    ++++####++++@@@@@@@@@@@@@@@@@@@@@@@++++++++++++++++@@@@####++++     ",
"     +++++++++++++++++++++++++++++++++++++++++++++++        @@@@+++++++++++++++++++++++++++++++++++++++++++++++++++++++.        ",
"     +++++++++++++++++++++++++++++++++++++++++++++++        @@@@+++++++++++++++++++++++++++++++++++++++++++++++++++++++.        ",
"     +++++++++++++++++++++++++++++++++++++++++++++++        @@@@+++++++++++++++++++++++++++++++++++++++++++++++++++++++....     ",
"     ++++++++++++++++   ++++++++++++++++++++++++++++        @@@@+++++++++++++++++++++++++++++++++++++++++++++++++++++++....     ",
"        ......          ++++++++++                                  ...        ...        %%%++++++++++%%%%%%        ......     ",
"        ......          ++++++++++                                  ...        ...        %%%++++++++++%%%%%%        ......     ",
"        ......                                                      ...        ...        %%%++++++++++%%%%%%        ......     ",
"                                                                                                                                "};
