/* XPM */
static char * pink_grass_xpm[] = {
"128 128 5 1",
" 	c #F8B8C0",
".	c #F8E0E0",
"+	c #000000",
"@	c #F8F8F8",
"#	c #D098A8",
"                                 ..                            ..                                                       ...     ",
"                                 ..                            ..                                                       ...     ",
"                              ...                           .....                                                    ...        ",
"                              ...                           .....                                                    ...        ",
"   ..                                            ........   ...                           ...                                   ",
"   ..                                            ........   ...                           ...                                   ",
"   ..                                            ........   ...                           ...                                   ",
"........                                      ...........                              ........                                 ",
"........                                      ...........                              ........                                 ",
"........                                      ...........                              ........                                 ",
"........   ...             ......             ...........                              ........   ...             ......        ",
"........   ...             ......             ...........                              ........   ...             ......        ",
"........   ...             ......             ...........                              ........   ...             ......        ",
"........   .....           ........           ........                                 ........   .....           .........     ",
"........   .....           ........           ........                                 ........   .....           .........     ",
"   ..         ..              .....                                                       ...        ..              ......     ",
"   ..         ..              .....                                                       ...        ..              ......     ",
"   ..         ..              .....                                                       ...        ..              ......     ",
"                                                                                                                                ",
"                                                                                                                                ",
"                                                                                                                                ",
"                   ...                      .....+++++++++++                ...                   ...                           ",
"                   ...                      .....+++++++++++                ...                   ...                           ",
"                   ...                      .....+++++++++++                ...                   ...                           ",
"                ......                      ..++++++..+++   +++..         ..                   ...                           ...",
"                ......                      ..++++++..+++   +++..         ..                   ...                           ...",
"     .........  ...                         +++++@@@@@@@@   +++++                                                 .........  ...",
"     .........  ...                         +++++@@@@@@@@   +++++                                                 .........  ...",
"     .........  ...                         +++++@@@@@@@@   +++++                                                 .........  ...",
"   ...........                              +++++...@@   ###+++++                                               ...........     ",
"   ...........                              +++++...@@   ###+++++                                               ...........     ",
"   ...........                              +++++...@@   ###+++++                                               ...........     ",
"   ...........                              ##+++###  ###++++++##      .....                 .....              ...........     ",
"   ...........                              ##+++###  ###++++++##      .....                 .....              ...........     ",
"   ........                                 ##+++++++++++++++++##      ........              ........           ........        ",
"   ........                                 ##+++++++++++++++++##      ........              ........           ........        ",
"   ........                                 ##+++++++++++++++++##      ........              ........           ........        ",
"                                              ###+++++++++++#####         .....                ......                           ",
"                                              ###+++++++++++#####         .....                ......                           ",
"                                              ###+++++++++++#####         .....                ......                           ",
"                                                 ##############                                                                 ",
"                                                 ##############                                                                 ",
"                                                 ##############                                                                 ",
"                                         ...                   ..                                                               ",
"                                         ...                   ..                                                               ",
"                                      ......                .....                                                            ...",
"                                      ......                .....                                                            ...",
"                                      ......                .....                                                            ...",
"                           ........   ...        ........   ...                           ...                     .........  ...",
"                           ........   ...        ........   ...                           ...                     .........  ...",
"                           ........   ...        ........   ...                           ...                     .........  ...",
"                         ..........           ...........                              ........                 ...........     ",
"                         ..........           ...........                              ........                 ...........     ",
"                         ..........           ...........                              ........   ...           ...........     ",
"                         ..........           ...........                              ........   ...           ...........     ",
"                         ..........           ...........                              ........   ...           ...........     ",
"                         ........             ........                                 ........   .....         ........        ",
"                         ........             ........                                 ........   .....         ........        ",
"                         ........             ........                                 ........   .....         ........        ",
"                                                                                          ...        ..                         ",
"                                                                                          ...        ..                         ",
"                                                                                          ...        ..                         ",
"                                                                                                                                ",
"                                                                                                                                ",
"                   ...           ..                            ..                                         ...           ...     ",
"                   ...           ..                            ..                                         ...           ...     ",
"                   ...           ..                            ..                                         ...           ...     ",
"                ......        ...                           .....                                      ......        ...        ",
"                ......        ...                           .....                                      ......        ...        ",
"                ......        ...                           .....                                      ......        ...        ",
"     .........  ...                              ........   ...                              ........  ...                      ",
"     .........  ...                              ........   ...                              ........  ...                      ",
"     .........  ...                              ........   ...                              ........  ...                      ",
"   ...........                                ...........                                 ...........                           ",
"   ...........                                ...........                                 ...........                           ",
"   ...........             ......             ...........                                 ...........             ......        ",
"   ...........             ......             ...........                                 ...........             ......        ",
"   ...........             ......             ...........                                 ...........             ......        ",
"   ........                ........           ........                                    ........                .........     ",
"   ........                ........           ........                                    ........                .........     ",
"   ........                ........           ........                                    ........                .........     ",
"                              .....                                                                                  ......     ",
"                              .....                                                                                  ......     ",
"                                                                                                                                ",
"                                                                                                                                ",
"                                                                                                                                ",
"           ...                           ...                                        ...           ...                           ",
"           ...                           ...                                        ...           ...                           ",
"           ...                           ...                                        ...           ...                           ",
"        ...                           ......                                      .....        ...                           ...",
"        ...                           ......                                      .....        ...                           ...",
"        ...                           ......                                      .....        ...                           ...",
"                           ........   ...                              ........   ..                              .........  ...",
"                           ........   ...                              ........   ..                              .........  ...",
"                         ..........                                 ...........                                 ...........     ",
"                         ..........                                 ...........                                 ...........     ",
"                         ..........                                 ...........                                 ...........     ",
"     ......              ..........                                 ...........              .....              ...........     ",
"     ......              ..........                                 ...........              .....              ...........     ",
"     ......              ..........                                 ...........              .....              ...........     ",
"     .........           ........                                   ........                 ........           ........        ",
"     .........           ........                                   ........                 ........           ........        ",
"        ......                                                                                 ......                           ",
"        ......                                                                                 ......                           ",
"        ......                                                                                 ......                           ",
"                                                                                                                                ",
"                                                                                                                                ",
"                                                                                                                                ",
"           ...                           ...                                           ......++++++++++                 ...     ",
"           ...                           ...                                           ......++++++++++                 ...     ",
"           ...                           ...                                           ......++++++++++                 ...     ",
"        ...                           ......                                           ...+++++...+++  +++...        ...        ",
"        ...                           ......                                           ...+++++...+++  +++...        ...        ",
"                           ........   ...                           ...                ++++++@@@@@@@@  ++++++                   ",
"                           ........   ...                           ...                ++++++@@@@@@@@  ++++++                   ",
"                           ........   ...                           ...                ++++++@@@@@@@@  ++++++                   ",
"                         ..........                              .........             ++++++..@@@   ##++++++                   ",
"                         ..........                              .........             ++++++..@@@   ##++++++                   ",
"                         ..........                              .........             ++++++..@@@   ##++++++                   ",
"     ......              ..........                              .........  ...        ###+++##   ###+++++###     ......        ",
"     ......              ..........                              .........  ...        ###+++##   ###+++++###     ......        ",
"     ......              ..........                              .........  ...        ###+++##   ###+++++###     ......        ",
"     .........           ........                                .........  ......     ###++++++++++++++++###     .........     ",
"     .........           ........                                .........  ......     ###++++++++++++++++###     .........     ",
"        ......                                                      ...        ...        ###++++++++++######        ......     ",
"        ......                                                      ...        ...        ###++++++++++######        ......     ",
"        ......                                                      ...        ...        ###++++++++++######         .....     ",
"                                                                                                                                "};
